<svg id="Layer_1" data-name="Layer 1" xmlns="http://www.w3.org/2000/svg" viewBox="0 0 700.64 119.49"><defs><style>.cls-1{fill:#fff;}.cls-2{fill:#0da1ed;}</style></defs><title>topresume-inverse</title><path class="cls-1" d="M213.4,0h31.28c15,0,24.3,2.71,29.6,6.85,8,6.21,11.63,15.64,11.63,26.11a31.65,31.65,0,0,1-4.78,17.32A27.29,27.29,0,0,1,268.73,60.5l19.78,35.16H263.3L238.35,49.51h4c6.21,0,11.51-.52,14.74-2.59,3-1.94,5.43-6.46,5.43-11.76A13,13,0,0,0,256.84,24a20.08,20.08,0,0,0-9.95-2.58h-9.05v74.2H213.4Z"/><path class="cls-1" d="M306.09,67.22c.9,7.63,8.15,12.67,16.55,12.67,6.85,0,10.46-3,13.06-6.72h22a42.07,42.07,0,0,1-14.61,18.36A34.85,34.85,0,0,1,322.64,98a38.07,38.07,0,0,1-38-38c0-20,15.77-38.52,37.62-38.52a36.7,36.7,0,0,1,27.15,11.37c9,9.69,11.77,21.2,10.08,34.39Zm32.32-16.29c-.51-3.36-4.91-11.37-16-11.37s-15.52,8-16,11.37Z"/><path class="cls-1" d="M394.12,44.08c-.13-1.55-.39-5.43-6.73-5.43-4.52,0-6.07,2.84-6.07,4.79,0,3.23,5.3,5.43,11,7.1,12.15,3.37,25.08,7,25.08,22.5,0,15.77-13.31,25.08-29.22,25.08-10.86,0-27.28-4.91-29.22-23.79h21.33c.9,6.59,7.24,6.59,8.14,6.59,3.63,0,7.5-2.07,7.5-5.56,0-4.91-5.3-5.56-19-10.86-9.31-3-17.06-9-17.06-18.75,0-14.87,12.93-24.3,27.79-24.3,9.44,0,25.72,3.75,27.53,22.62Z"/><path class="cls-1" d="M486.15,95.66h-20V88c-2.46,3.49-7,10.08-19.91,10.08-24.31,0-26.76-19.65-26.76-29.35V23.91h21.46V63.09C440.91,71,442.59,78,452.28,78c10.73,0,12.41-7.62,12.41-15v-39h21.46Z"/><path class="cls-1" d="M493.26,23.91h20v7.63a16.86,16.86,0,0,1,4.39-5c3.11-2.59,8.14-5,15.64-5a21.89,21.89,0,0,1,16.42,6.85A24.34,24.34,0,0,1,554,34.26,29.3,29.3,0,0,1,559.19,28a25.47,25.47,0,0,1,17.58-6.59c5,0,13.06,1.16,18.87,7.24,6.72,7.11,7.76,11.89,7.76,27.79V95.66H581.94V57.52c0-3,0-6.85-1.42-10.08s-4-5.82-9.57-5.82c-5.95,0-8.92,2.71-10.34,5.95s-1.55,6.85-1.55,8.92V95.66H537.6v-39a24.61,24.61,0,0,0-1.29-8.92c-1.42-3.37-4-6.08-9.44-6.08-6.07,0-9,2.84-10.6,6.33s-1.55,7.37-1.55,9.56V95.66H493.26Z"/><path class="cls-1" d="M627.7,67.22c.9,7.63,8.14,12.67,16.54,12.67,6.85,0,10.48-3,13.06-6.72h22a42.09,42.09,0,0,1-14.61,18.36A34.86,34.86,0,0,1,644.24,98a38.07,38.07,0,0,1-38-38c0-20,15.77-38.52,37.62-38.52A36.7,36.7,0,0,1,671,32.83c9.05,9.69,11.77,21.2,10.08,34.39ZM660,50.93c-.52-3.36-4.91-11.37-16-11.37s-15.51,8-16,11.37Z"/><path class="cls-1" d="M675,15.1a12.65,12.65,0,0,1,1.7-6.38A12.47,12.47,0,0,1,681.42,4a12.83,12.83,0,0,1,12.8,0,12.49,12.49,0,0,1,4.7,4.68A12.84,12.84,0,0,1,699,21.39,12.8,12.8,0,0,1,675,15.1Zm2.42,0a10.38,10.38,0,1,0,19.37-5.2,10.39,10.39,0,0,0-19.37,5.2Zm15.57-3a4,4,0,0,1-2.43,4l4,6.81h-4.32l-3-5.75h-.8v5.75h-3.9V7.32h4.49a7,7,0,0,1,4.52,1.19A4.44,4.44,0,0,1,693,12.14Zm-6.55,2.16H687a2.22,2.22,0,0,0,1.61-.49,2.21,2.21,0,0,0,.49-1.61,2.12,2.12,0,0,0-.48-1.57,2.35,2.35,0,0,0-1.65-.46h-.49Z"/><path class="cls-2" d="M18.85,21.52H0V.09H62V21.52H43.24V95.61H18.85Z"/><path class="cls-2" d="M50.08,59.6c0-17.43,12.52-38,38.6-38s38.6,20.53,38.6,38.08-12.52,38.08-38.6,38.08-38.6-20.52-38.6-38.08Zm21.43.26c0,10.33,7.87,17.94,17.16,17.94s17.17-7.62,17.17-18.07S98,41.65,88.67,41.65,71.51,49.27,71.51,59.73Z"/><path class="cls-2" d="M131,24h20.13v7.88a28.62,28.62,0,0,1,22.72-10.33c25.43,0,35,22.33,35,39,0,20.65-14.46,37.56-34.86,37.56-12.9,0-19-6.19-21.55-8.91v30.33H131Zm56.41,35.76c0-8.39-6.2-18.2-17.94-18.2a17.72,17.72,0,0,0-12.91,5.42,18.8,18.8,0,0,0-5,13,17.86,17.86,0,0,0,17.95,18.07c11.23,0,17.94-9.17,17.94-18.2Z"/></svg>